<svg viewBox="0 0 135 24" fill="none" xmlns="http://www.w3.org/2000/svg">
<g clip-path="url(#clip0_12014_655)">
<path d="M11.7809 11.7813C12.8351 11.9748 13.9154 12.0795 14.9381 12.3777C17.4152 13.1048 18.6184 14.7423 18.689 17.3004C18.7623 19.9266 17.5852 21.8701 15.3095 22.7568C13.8866 23.3114 12.3799 23.5389 10.855 23.5546C7.69517 23.5834 4.53276 23.5259 1.37558 23.6122C0.190662 23.6436 -0.0342899 23.2251 0.00756163 22.1526C0.269134 15.3543 0.253439 8.55347 0.0180245 1.75521C-0.00551698 1.07512 -0.112762 0.410729 0.957069 0.447349C4.96174 0.588598 8.98733 0.120384 12.9685 0.729847C16.7691 1.31315 18.1973 2.9349 18.1162 6.25164C18.043 9.21525 16.2198 10.9024 12.618 11.3471C12.3302 11.3837 12.0451 11.4386 11.76 11.4857C11.7678 11.5851 11.7731 11.6819 11.7809 11.7813ZM7.82857 20.7061C8.91932 20.7061 10.0101 20.714 11.1035 20.7009C11.3441 20.6983 11.5874 20.6486 11.8202 20.5884C13.7375 20.1019 14.7184 18.8699 14.7131 16.963C14.7079 15.1215 13.8081 13.9968 11.9614 13.4187C10.5934 12.9923 9.19659 13.1153 7.80503 13.1074C3.95469 13.0865 3.95469 13.0996 3.95469 16.9526C3.95207 20.8134 3.95207 20.8134 7.82857 20.7061ZM3.95469 6.92911C3.95469 7.82892 3.95992 8.72872 3.95207 9.62853C3.94945 10.1438 4.00177 10.6173 4.69232 10.5963C6.86598 10.5283 9.06319 10.8605 11.2107 10.3583C13.2719 9.87441 14.1769 8.62148 14.0618 6.59429C13.9572 4.74498 12.89 3.64376 10.8079 3.35865C9.79036 3.22001 8.75715 3.17555 7.72917 3.1677C3.95207 3.13631 3.95207 3.14939 3.95469 6.92911Z" fill="#342C29"/>
<path d="M130.718 12.3224C129.112 14.6138 126.973 15.647 124.271 15.4874C119.85 15.2285 117.355 12.5552 117.3 8.08754C117.245 3.54664 120.02 0.580417 124.718 0.146207C130.376 -0.374321 133.58 1.95367 134.6 7.56439C135.254 11.1479 135.131 14.7629 134.025 18.2705C132.876 21.9116 130.132 23.8054 126.044 23.9126C122.217 24.012 119.515 22.3537 118.307 19.0997C118.113 18.5818 117.451 17.6375 118.435 17.5355C119.554 17.4178 121.019 16.0341 121.911 17.8729C123.402 20.949 126.24 21.9169 129.45 20.4207C129.986 20.1696 130.156 19.806 130.276 19.3482C130.875 17.0699 131.011 14.7524 130.718 12.3224ZM121.257 7.46238C121.202 10.9491 122.751 12.6624 125.994 12.6991C128.715 12.7304 130.894 11.2238 130.928 9.28815C131.001 5.14223 129.324 2.90318 125.934 3.03919C121.506 3.21445 121.524 3.72713 121.257 7.46238Z" fill="#342C29"/>
<path d="M52.0031 23.9627C46.3793 23.9209 43.4288 22.1212 42.338 18.5429C41.6763 16.3745 41.6998 16.4059 43.9232 16.3222C45.2912 16.2699 46.3061 16.3065 46.6618 18.0198C46.926 19.3015 48.0639 20.0496 49.3874 20.421C50.4049 20.7087 51.4277 20.7297 52.4557 20.659C55.414 20.4576 55.9476 20.0287 56.1412 17.7844C56.3531 15.3308 55.367 13.8216 52.9971 13.2749C51.289 12.8799 49.5287 12.702 47.7971 12.4012C44.8988 11.8964 43.5151 10.5571 42.992 7.79493C42.4714 5.04319 43.4 2.85645 45.6914 1.43873C50.6194 -1.60859 57.9094 0.418595 59.5103 5.32046C59.73 5.99008 60.4336 6.98667 59.641 7.4235C58.6732 7.9571 57.402 7.84724 56.2668 7.70338C56.068 7.67722 55.932 7.00498 55.8012 6.62047C54.7993 3.66471 50.1407 2.10574 47.6087 3.88181C46.3793 4.745 46.6435 8.10359 48.0063 9.28328C49.0238 10.1648 50.2872 10.3531 51.5349 10.5807C52.7879 10.8082 54.0591 10.939 55.3042 11.2006C57.6505 11.6924 59.3978 12.8014 59.9079 15.3805C60.4493 18.1244 59.8268 20.4053 57.5563 22.1082C55.6992 23.5076 53.5124 23.9549 52.0031 23.9627Z" fill="#342C29"/>
<path d="M38.4611 23.5837C37.0487 24.0206 36.502 23.1678 36.1018 21.7161C35.0345 17.8318 34.9692 17.8449 31.0534 17.8527C29.3532 17.8553 27.36 17.3505 26.0339 18.0567C24.6658 18.7865 24.8175 21.0151 24.2682 22.5767C24.0851 23.0946 23.97 23.6413 23.2246 23.5811C22.1521 23.4974 21.0535 23.7852 20.0229 23.364C19.9523 23.3353 20.0935 22.7023 20.1982 22.3674C22.3405 15.4175 24.5063 8.47534 26.6198 1.51752C26.8813 0.659565 27.3025 0.400609 28.1552 0.439845C29.9705 0.520932 32.22 -0.10161 33.4808 0.745884C34.6265 1.51752 34.7154 3.84813 35.236 5.50127C36.9153 10.8321 38.5736 16.1708 40.2477 21.5016C40.899 23.5864 40.9042 23.5837 38.4611 23.5837ZM30.3341 1.98835C29.0445 6.41154 27.9015 10.3822 26.7218 14.3424C26.5021 15.0774 26.85 15.169 27.428 15.169C29.3715 15.1637 31.315 15.1637 33.2611 15.169C33.8444 15.1716 34.1818 15.067 33.9647 14.3398C32.7798 10.3744 31.6289 6.40369 30.3341 1.98835Z" fill="#342C29"/>
<path d="M63.6848 12.0375C63.6821 8.60567 63.724 5.17384 63.656 1.74201C63.6351 0.695722 63.9594 0.423687 64.9822 0.43415C69.4812 0.483849 73.9802 0.499543 78.4793 0.426303C79.6851 0.407993 79.8473 0.870976 79.8656 1.89634C79.8839 3.02371 79.6276 3.48408 78.3694 3.44746C75.3326 3.35853 72.2879 3.48408 69.251 3.38992C67.9405 3.34806 67.5508 3.78227 67.6528 5.02213C67.7522 6.21751 67.7627 7.43644 67.6502 8.63182C67.522 9.9763 68.1027 10.2353 69.3216 10.1803C72.1152 10.0574 74.9167 10.1254 77.7076 9.992C78.9527 9.93184 79.0652 10.4811 79.0783 11.483C79.094 12.5266 78.903 12.9896 77.6893 12.9347C74.8356 12.8091 71.974 12.8798 69.1202 12.783C68.0452 12.7464 67.5796 12.9844 67.6476 14.1562C67.7444 15.8355 67.7391 17.5305 67.6502 19.2124C67.59 20.3529 68.0269 20.6406 69.115 20.6197C72.2146 20.5595 75.3169 20.6458 78.4165 20.5752C79.6276 20.5464 80.1246 20.8185 80.1141 22.1473C80.1036 23.3976 79.6511 23.6278 78.5185 23.6121C74.0796 23.5571 69.6408 23.5362 65.2045 23.6225C63.8548 23.6487 63.6246 23.1805 63.656 21.9746C63.7449 18.6605 63.6874 15.3464 63.6848 12.0375Z" fill="#342C29"/>
<path d="M111.793 3.75357C107.525 3.75357 103.397 3.70649 99.2693 3.78234C98.0373 3.80588 97.5351 3.56001 97.6083 2.23383C97.6711 1.10646 97.6109 0.371441 99.1961 0.410677C103.813 0.531 108.435 0.491765 113.054 0.426371C114.284 0.408061 114.637 0.714101 114.747 1.9958C114.927 4.125 114.284 5.46425 112.293 6.41376C110.509 7.26648 108.903 8.47495 107.043 9.63371C107.695 10.1333 108.309 10.0313 108.853 10.0993C112.837 10.5884 114.867 12.3776 115.126 15.6551C115.432 19.5394 113.515 22.4141 109.837 23.463C107.391 24.1614 104.906 24.151 102.453 23.5023C99.2641 22.66 97.1846 19.7775 97.2343 16.4921C97.2447 15.778 97.3572 15.2026 98.1916 15.4066C99.1333 15.6342 100.499 14.6114 100.996 16.1364C102.474 20.6877 104.802 21.959 109.369 20.6354C110.195 20.3974 110.705 19.9946 110.909 19.0948C111.166 17.9622 111.249 16.8348 111.171 15.6917C111.027 13.5965 109.902 12.3541 107.81 12.0637C106.852 11.9303 105.866 12.0088 104.898 11.9172C104.307 11.8597 103.405 12.3122 103.243 11.3261C103.101 10.4707 102.997 9.59709 104.048 8.98763C106.3 7.68238 108.474 6.24635 110.671 4.84694C111.064 4.60106 111.576 4.48074 111.793 3.75357Z" fill="#342C29"/>
<path d="M95.4895 1.0957C96.0441 4.1404 95.4948 6.3193 93.6585 8.44588C89.7219 13.0077 86.0729 17.8128 82.2984 22.5106C82.0081 22.8716 81.8093 23.3503 81.0926 23.5072C81.0115 21.3022 80.6244 19.275 82.3351 17.2792C86.3371 12.6127 90.0907 7.73702 93.9463 2.95025C94.3857 2.40095 94.8461 1.86734 95.4895 1.0957Z" fill="#9F5239"/>
</g>
<defs>
<clipPath id="clip0_12014_655">
<rect width="135" height="23.9914" fill="white"/>
</clipPath>
</defs>
</svg>
